<svg width="690" height="767" viewBox="0 0 690 767" fill="none" xmlns="http://www.w3.org/2000/svg">
<path d="M129.828 3.0005C110.348 6.38836 101.455 9.35274 84.5155 18.0341C48.5195 36.0322 20.3579 70.1225 5.95943 113.106L0.87764 127.928L0.242415 375.665C-0.392809 642.883 -0.60455 639.072 10.6177 667.445C29.251 715.299 75.6224 753.624 126.229 763.364C149.52 767.81 352.157 767.599 373.543 763.152C411.444 755.318 447.44 728.85 473.273 689.89C480.895 678.456 490.424 666.175 494.447 662.787C502.281 655.799 506.093 654.741 536.583 653.047C569.827 651.353 588.46 644.789 603.917 629.755C620.433 613.663 623.821 598.841 619.374 562.845C617.469 549.082 617.68 548.87 626.362 534.471C636.102 518.167 636.525 514.991 631.655 493.394C628.479 479.842 628.479 477.936 631.444 473.278C634.408 468.832 637.161 468.196 652.618 466.714C673.368 465.02 682.473 460.574 687.132 449.775C690.731 441.093 690.943 432.836 687.767 423.095C685.014 414.626 639.701 316.166 635.89 310.026C634.408 307.696 630.597 299.015 627.42 290.969C621.915 276.57 621.703 274.453 620.221 211.566C618.739 155.454 617.892 145.079 614.081 131.739C598.835 79.2274 563.475 37.7261 515.198 15.4932C481.954 0.0361226 479.837 -0.175619 302.609 0.0361226C183.187 0.247864 141.262 0.883088 129.828 3.0005ZM472.002 65.0407C501.223 74.7808 529.172 97.2254 542.512 121.999C555.428 145.926 560.087 182.769 553.523 207.966C546.535 234.646 540.606 242.904 480.26 311.508C447.017 348.986 439.606 358.514 422.031 385.406C402.339 415.261 397.469 430.506 397.258 461.421C397.046 489.794 400.645 502.922 416.103 529.601C428.384 550.987 431.771 564.962 431.771 592.912C431.771 634.625 424.149 655.376 401.281 676.762C386.882 690.313 374.813 697.301 357.027 701.959C340.299 706.405 151.849 706.194 134.698 701.747C95.9495 691.795 69.0584 661.94 63.3414 623.403C62.0709 614.086 61.2239 522.826 61.2239 382.018C61.2239 135.551 61.0122 143.173 73.0815 117.341C86.4212 89.1793 119.029 65.4642 150.155 61.4411C157.778 60.3824 230.194 59.7472 311.079 59.9589C455.91 60.3824 458.451 60.3824 472.002 65.0407Z" fill="#31A875"/>
<path d="M360.838 162.653C357.45 164.771 329.289 192.085 298.586 223L242.475 279.323L213.678 250.738C185.728 223.211 184.457 222.153 175.776 222.153C170.906 222.153 164.13 223.635 160.742 225.329C149.308 231.258 144.65 247.773 151.002 259.843C152.696 263.019 171.118 282.287 191.868 303.038C232.946 343.692 238.028 346.868 250.944 340.093C254.332 338.187 288.846 304.944 327.595 266.195L397.893 195.473V186.58C397.893 174.511 393.446 166.253 384.341 162.018C375.025 157.572 368.672 157.783 360.838 162.653Z" fill="#31A875"/>
<path d="M158.202 430.93C146.768 437.07 142.533 454.01 149.308 465.655C156.931 478.148 157.566 478.36 236.969 478.36C314.467 478.36 317.219 477.936 324.63 467.349C332.041 456.762 326.959 436.647 315.314 430.718C306.209 426.06 166.883 426.06 158.202 430.93Z" fill="#31A875"/>
<path d="M159.26 560.092C147.614 565.809 142.744 582.325 148.885 594.606C155.66 607.522 155.449 607.522 238.028 607.522H313.619L319.548 601.382C331.194 589.948 330.559 574.067 318.278 563.268L310.867 556.704H238.451C177.046 556.704 164.977 557.339 159.26 560.092Z" fill="#31A875"/>
</svg>
